<svg width="100" height="100" viewBox="0 0 52 52" fill="none" xmlns="http://www.w3.org/2000/svg">
<path d="M7.33333 50H44.6667C47.6122 50 50 47.6122 50 44.6667V7.33333C50 4.38781 47.6122 2 44.6667 2H7.33333C4.38781 2 2 4.38781 2 7.33333V44.6667C2 47.6122 4.38781 50 7.33333 50ZM7.33333 50L36.6667 20.6667L50 34M20.6667 16.6667C20.6667 18.8758 18.8758 20.6667 16.6667 20.6667C14.4575 20.6667 12.6667 18.8758 12.6667 16.6667C12.6667 14.4575 14.4575 12.6667 16.6667 12.6667C18.8758 12.6667 20.6667 14.4575 20.6667 16.6667Z" stroke="white" stroke-width="4" stroke-linecap="round" stroke-linejoin="round"/>
</svg>
