<svg width="100" height="100" viewBox="0 0 45 38" fill="none" xmlns="http://www.w3.org/2000/svg">
<path d="M42.1196 4.63395V15.543M42.1196 15.543H31.2105M42.1196 15.543L33.6833 7.61577C31.7292 5.6607 29.3117 4.23251 26.6563 3.46445C24.001 2.69639 21.1944 2.6135 18.4983 3.22351C15.8023 3.83352 13.3047 5.11656 11.2387 6.95289C9.1726 8.78923 7.60539 11.119 6.68327 13.7249M2.11963 33.7249V22.8158M2.11963 22.8158H13.0287M2.11963 22.8158L10.556 30.743C12.5101 32.6981 14.9276 34.1263 17.5829 34.8944C20.2383 35.6624 23.0449 35.7453 25.7409 35.1353C28.437 34.5253 30.9345 33.2422 33.0006 31.4059C35.0667 29.5696 36.6339 27.2398 37.556 24.6339" stroke="white" stroke-width="4" stroke-linecap="round" stroke-linejoin="round"/>
</svg>
